<?xml version="1.0" encoding="UTF-8" standalone="no"?>
<!-- Created with Inkscape (http://www.inkscape.org/) -->

<svg
   width="128mm"
   height="128mm"
   viewBox="0 0 128 128"
   version="1.1"
   id="svg5"
   inkscape:version="1.1.2 (0a00cf5339, 2022-02-04)"
   sodipodi:docname="logo.svg"
   xmlns:inkscape="http://www.inkscape.org/namespaces/inkscape"
   xmlns:sodipodi="http://sodipodi.sourceforge.net/DTD/sodipodi-0.dtd"
   xmlns="http://www.w3.org/2000/svg"
   xmlns:svg="http://www.w3.org/2000/svg">
  <sodipodi:namedview
     id="namedview7"
     pagecolor="#ffffff"
     bordercolor="#666666"
     borderopacity="1.0"
     inkscape:pageshadow="2"
     inkscape:pageopacity="0.0"
     inkscape:pagecheckerboard="0"
     inkscape:document-units="mm"
     showgrid="false"
     fit-margin-top="0"
     fit-margin-left="0"
     fit-margin-right="0"
     fit-margin-bottom="0"
     inkscape:zoom="0.74208053"
     inkscape:cx="80.853759"
     inkscape:cy="362.49435"
     inkscape:window-width="1920"
     inkscape:window-height="1011"
     inkscape:window-x="0"
     inkscape:window-y="32"
     inkscape:window-maximized="1"
     inkscape:current-layer="g75540" />
  <defs
     id="defs2" />
  <g
     inkscape:label="Capa 1"
     inkscape:groupmode="layer"
     id="layer1"
     transform="translate(-41.805069,-24.145941)">
    <g
       id="g75540"
       transform="translate(-6.1898575,0.89173737)">
      <circle
         style="opacity:0.5;fill:#00ffcc;stroke-width:0.302919"
         id="path39137"
         cx="111.99493"
         cy="87.254204"
         r="64" />
      <g
         aria-label="&lt;ng&gt;"
         id="text2937"
         style="font-size:50.8px;line-height:1.25;stroke-width:0.264583">
        <path
           d="M 74.16987,73.478321 59.386277,86.724024 74.16987,99.67207 H 64.868113 L 52.887449,89.154883 q -1.116211,-0.917773 -1.116211,-2.430859 0,-0.694532 0.272851,-1.314649 0.297657,-0.620117 0.79375,-1.066601 L 64.967331,73.478321 Z"
           style="font-family:Audiowide;-inkscape-font-specification:Audiowide"
           id="path10" />
        <path
           d="m 109.44214,104.55859 h -6.44922 V 89.675781 q 0,-1.265039 -0.44649,-2.257226 -0.42168,-1.016992 -1.16582,-1.736328 -0.74414,-0.719336 -1.76113,-1.091406 -0.992187,-0.396875 -2.158008,-0.396875 H 86.17534 V 104.55859 H 79.726121 V 80.944532 q 0,-0.669727 0.248047,-1.240235 0.248047,-0.595312 0.694531,-1.016992 0.446485,-0.446484 1.041797,-0.694531 0.595313,-0.248047 1.265039,-0.248047 h 14.535547 q 1.215429,0 2.554878,0.272852 1.36426,0.272851 2.67891,0.892968 1.33945,0.595313 2.53008,1.537891 1.21543,0.917773 2.1332,2.257226 0.94258,1.314649 1.48828,3.050977 0.54571,1.736328 0.54571,3.91914 z"
           style="font-family:Audiowide;-inkscape-font-specification:Audiowide"
           id="path12" />
        <path
           d="m 144.26791,107.13828 q 0,1.66192 -0.42168,2.97656 -0.42168,1.33946 -1.11621,2.33164 -0.69453,1.017 -1.6123,1.71153 -0.91777,0.71933 -1.93477,1.16582 -0.99218,0.44648 -2.03398,0.64492 -1.01699,0.22324 -1.93477,0.22324 h -11.63339 v -6.44922 h 11.63339 q 1.31465,0 1.95957,-0.66972 0.64493,-0.66973 0.64493,-1.93477 V 86.773633 q 0,-1.265039 -0.64493,-1.909961 -0.64492,-0.669726 -1.95957,-0.669726 h -11.63339 q -1.19063,0 -1.88516,0.74414 -0.69453,0.719336 -0.69453,1.835547 v 8.73125 q 0,1.265039 0.66972,1.934766 0.66973,0.669726 1.95957,0.669726 h 11.58379 v 6.449215 h -11.63339 q -0.91778,0 -1.93477,-0.19843 -1.01699,-0.22325 -2.03398,-0.66973 -0.99219,-0.44648 -1.90997,-1.14102 -0.91777,-0.71933 -1.6123,-1.71152 -0.69453,-1.016991 -1.11621,-2.33164 -0.42168,-1.339453 -0.42168,-3.001367 v -8.73125 q 0,-0.917773 0.19844,-1.934766 0.22324,-1.016992 0.66972,-2.009179 0.44649,-1.016992 1.14102,-1.934766 0.71933,-0.917773 1.71152,-1.612304 1.01699,-0.694532 2.33164,-1.116211 1.31465,-0.42168 2.97657,-0.42168 h 11.63339 q 0.91778,0 1.93477,0.223242 1.0418,0.198438 2.03398,0.644922 1.017,0.446484 1.93477,1.16582 0.91777,0.694532 1.6123,1.711524 0.69453,0.992187 1.11621,2.306836 0.42168,1.314648 0.42168,2.976562 z"
           style="font-family:Audiowide;-inkscape-font-specification:Audiowide"
           id="path14" />
        <path
           d="m 158.85307,73.478321 12.1543,10.864453 q 0.49609,0.446484 0.76894,1.066601 0.29766,0.620117 0.29766,1.314649 0,0.719336 -0.29766,1.364257 -0.29765,0.620118 -0.81855,1.066602 L 158.95229,99.67207 h -9.27695 L 164.45893,86.724024 149.67534,73.478321 Z"
           style="font-family:Audiowide;-inkscape-font-specification:Audiowide"
           id="path16" />
      </g>
    </g>
  </g>
</svg>
